**ABCDEFGHIJKLMNOPQRSTUVWXYZabcdefghijklmnopqrstuvwxyz**************************
**PARASOLID !"#$%&'()*+,-./:;<=>?@[\]^_`{|}~0123456789**************************
**PART1;
MC=unknown;
MC_MODEL=unknown;
MC_ID=unknown;
OS=unknown;
OS_RELEASE=unknown;
FRU=Parasolid 37.1.212;
APPL=Onshape;
SITE=unknown;
USER=unknown;
FORMAT=text;
GUISE=transmit;
KEY=BTGapi::writeModels_.xmt;
FILE=BTGapi::writeModels_.xmt;
DATE=2026-05-16T16:39:40 (UTC);
**PART2;
SCH=SCH_3701212_37102;
USFLD_SIZE=0;
**PART3;
**END_OF_HEADER*****************************************************************
T51 : TRANSMIT FILE created by modeller version 370121223 SCH_3701212_37102_1300
6239 0 12 36 CCCI7 lattice222 0 CCCI4 mesh1006 0 I8 polyline1008 0 CCCCCCCDI5 ow
ner1040 0 CCCI16 boundary_lattice222 0 CCCI13 boundary_mesh1006 0 I17 boundary_p
olyline1008 0 CCCA16 index_map_offset0 0 1 dA9 index_map82 0 A17 node_id_index_m
ap82 0 A20 schema_embedding_map82 0 A5 child12 0 A14 lowest_node_id0 0 1 dA16 me
sh_offset_data206 0 Z1 715 2 3 0 0 0 0 0 0 0 1e3 1e-8 0 4 5 1 0 1 2 6 0 7 8 9 0
 0 10 11 12 0 0 0 0 0 0 0 81 255 1 2 697 13 1 14 0 0 0 15 70 11 CI9 list_type0 0
 1 uI10 notransmit0 0 1 lCCCDCCDI12 finger_index0 0 1 dI12 finger_block1012 0 CZ
3 0 4 T1 0 0 5 20 1 16 16 13 255 6 251 0 1 0 17 0 0 18 0 51 255 7 244 0 19 20 0
 0 -.015 826636589424463e-34 .0127 0 0 -1 .00135 -1 0 0 30 255 8 386 0 11 21 0 0
 +-.0263254634475663 .04350645347800145 0 .68968404037508 .724110436640645 0 29
 255 9 377 0 12 22 0 -.00880501213202731 .061901458885603 0 19 9 CCCCCCI5 frame2
30 0 CA5 owner12 0 Z10 90 0 1 18 0 23 0 V0 16 255 11 384 24 ?25 0 27 8 0 0 1 18
 255 12 373 30 29 0 26 9 ?1 81 1 30 666 28 12 0 0 34 35 32 17 255 29 0 33 31 38
 12 40 36 0 25 -18 26 79 39 37 12 41 45 ?1 81 1 39 285 28 26 0 0 43 42 44 17 37
 0 46 50 48 26 47 49 0 51 +18 41 69 55 52 26 53 54 ?1 29 45 81 0 26 54 57 -.0088
9982835276267 .0620656853972983 .0127 29 54 71 0 41 60 45 -.00695731669601219 .0
466507305116713 .0127 29 57 210 0 59 45 56 -.01317816634417212 .0214802748230071
 0 18 59 192 58 61 62 64 57 ?1 29 56 209 0 62 57 63 -.00695731669601219 .0242211
0689167555 0 18 62 188 65 67 70 59 56 ?1 29 63 206 0 70 56 22 -.0088998283527626
7 .0620656853972983 0 18 70 176 43 40 69 62 63 ?1 29 22 205 0 69 63 9 -.01317816
634417212 .0573100134980442 0 18 69 172 66 31 68 70 22 ?1 81 1 66 668 28 69 0 0
 35 75 71 17 31 0 33 38 29 69 25 11 0 73 -18 68 59 72 74 53 69 76 ?1 81 1 72 277
 28 68 0 0 58 65 80 17 74 0 77 78 79 68 61 81 0 85 -18 53 64 83 82 41 68 60 ?1 2
9 76 61 0 68 84 60 -.01317816634417212 .0214802748230071 .0127 29 84 633 0 64 89
 76 -.00880501213202731 .061901458885603 .0127 29 60 66 0 53 76 54 -.00695731669
601219 .02422110689167555 .0127 18 64 530 35 90 59 87 84 ?1 29 89 635 0 87 88 84
 -.01317816634417212 .0573100134980442 .0127 18 87 539 75 86 64 93 89 ?1 29 88 6
36 0 93 95 89 -.00695731669601219 .0466507305116713 693889390390723e-32 18 93 53
4 91 94 87 92 88 ?1 29 95 640 0 96 100 88 -.00880501213202731 .061901458885603 -
.0127 18 96 532 98 97 99 101 95 ?1 29 100 641 0 101 105 95 693889390390723e-32 .
0466507305116713 -.0127 18 101 546 103 102 96 104 100 ?1 29 105 642 0 104 106 10
0 -.00695731669601219 .0466507305116713 -.0127 18 104 537 110 107 101 108 105 ?1
 29 106 643 0 108 109 105 -.01317816634417212 .0573100134980442 -.0127 18 108 53
5 112 115 104 0 106 ?1 29 109 644 0 92 114 106 -.00880501213202731 .061901458885
603 .0254 18 92 550 111 113 93 116 109 ?1 29 114 645 0 116 117 109 6938893903907
23e-32 .0466507305116713 .0254 18 116 543 119 118 92 120 114 ?1 29 117 646 0 120
 122 114 -.00695731669601219 .0466507305116713 .0254 18 120 548 125 124 116 99 1
17 ?1 29 122 647 0 99 0 117 -.01317816634417212 .0573100134980442 .0254 18 99 54
1 121 123 120 96 122 ?1 81 1 121 542 28 99 0 0 110 119 130 17 123 0 126 128 127
 99 124 129 0 131 -15 255 126 591 0 135 132 0 17 128 0 126 135 123 87 133 134 0
 136 +17 127 0 126 123 135 120 52 140 0 138 -17 124 0 137 139 131 120 123 129 0
 127 +16 129 519 144 ?124 145 142 143 0 0 1 17 131 0 137 124 113 99 141 142 0 13
3 +15 137 603 0 131 148 0 17 113 0 137 131 139 92 150 146 0 149 +17 141 0 147 90
 133 92 131 142 0 0 -16 142 516 151 ?131 129 155 153 0 0 1 17 133 0 147 141 86 9
9 128 134 0 0 -15 147 587 0 86 152 0 17 86 0 147 133 90 87 48 154 0 128 -16 134
 498 156 ?128 160 158 157 158 158 1 81 1 156 684 28 134 0 0 159 161 165 16 160 4
67 162 ?136 154 134 163 0 0 1 16 158 478 159 ?115 134 140 157 134 134 1 30 157 6
20 0 134 164 163 0 +-.01317816634417212 .0573100134980442 .0254 0 0 -1 30 164 62
1 0 140 167 157 0 +-.00695731669601219 .0466507305116713 .0254 0 0 -1 30 163 617
 0 160 157 170 0 +.00709461833250713 .0225730625970613 .0127 -.504048422660692 .
86367539481756 0 30 170 616 0 154 163 169 0 +-.0263254634475663 .043506453478001
45 .0127 .68968404037508 .724110436640645 0 16 154 450 166 ?48 168 160 170 0 0 1
 31 255 169 11 0 171 170 172 0 +.015 826636589424463e-34 .0127 0 0 1 1 0 0 .0013
5 16 171 9 174 ?173 175 177 169 0 0 1 31 172 16 0 175 169 180 0 +0 1944126793646
425e-34 .0127 0 0 1 1 0 0 .003175 16 175 14 179 ?176 178 171 172 0 0 1 30 180 21
 0 178 172 185 0 +-.01317816634417212 .03939514416052565 .0127 0 1 0 16 178 19 1
81 ?78 183 175 180 0 0 1 31 185 26 0 183 180 182 0 +4007211229506425e-31 -765013
052905772e-30 .0127 0 0 1 1 0 0 .02520052131735735 16 183 24 184 ?82 186 178 185
 0 0 1 30 182 31 0 186 185 190 0 +-.00695731669601219 .03543591870167345 .0127 1
160110957744954e-31 -1 0 16 186 29 187 ?188 49 183 182 0 0 1 30 190 41 0 49 182
 189 0 +-.004449914176381335 .0543582079544848 .0127 -.5 .866025403784439 0 16 4
9 39 191 ?37 195 186 190 0 0 1 30 189 46 0 195 190 193 0 +-.0110389973484674 .05
96878494476713 .0127 .668812130472297 .74343145893425 0 16 195 44 192 ?194 199 4
9 189 0 0 1 31 193 204 0 168 189 200 0 +.015 826636589424463e-34 0 0 0 1 1 0 0 .
00135 16 168 168 197 ?198 196 154 193 0 0 1 31 200 203 0 196 193 203 0 +0 194412
6793646425e-34 0 0 0 1 1 0 0 .003175 16 196 164 205 ?201 204 168 200 0 0 1 30 20
3 202 0 204 200 202 0 +-.01317816634417212 .03939514416052565 0 0 1 0 16 204 160
 206 ?210 208 196 203 0 0 1 31 202 201 0 208 203 207 0 +4007211229506425e-31 -76
5013052905772e-30 0 0 0 1 1 0 0 .02520052131735735 16 208 156 209 ?211 215 204 2
02 0 0 1 30 207 200 0 215 202 213 0 +-.00695731669601219 .03543591870167345 0 11
60110957744954e-31 -1 0 16 215 152 212 ?214 36 208 207 0 0 1 30 213 198 0 36 207
 216 0 +-.004449914176381335 .0543582079544848 0 -.5 .866025403784439 0 16 36 14
4 220 ?40 177 215 213 0 0 1 30 216 197 0 177 213 217 0 +-.0110389973484674 .0596
878494476713 0 .668812130472297 .74343145893425 0 16 177 140 218 ?38 171 36 216
 0 0 1 30 217 245 0 199 216 219 0 +-.01317816634417212 .0573100134980442 .0127 0
 0 -1 16 199 211 222 ?73 225 195 217 0 0 1 30 219 246 0 225 217 224 0 +-.0088998
2835276267 .0620656853972983 .0127 0 0 -1 16 225 212 221 ?223 226 199 219 0 0 1
 30 224 247 0 226 219 227 0 +693889390390723e-32 .0466507305116713 .0127 0 0 -1
 16 226 213 229 ?102 228 225 224 0 0 1 30 227 248 0 228 224 230 0 +-.00695731669
601219 .0466507305116713 .0127 0 0 -1 16 228 214 232 ?235 234 226 227 0 0 1 30 2
30 249 0 234 227 231 0 +-.00695731669601219 .02422110689167555 .0127 0 0 -1 16 2
34 215 233 ?67 81 228 230 0 0 1 30 231 250 0 81 230 21 0 +-.01317816634417212 .0
214802748230071 .0127 0 0 -1 16 81 216 42 ?61 27 234 231 0 0 1 30 21 380 0 27 23
1 8 0 +.00709461833250713 .0225730625970613 0 -.504048422660692 .86367539481756
 0 16 27 378 240 ?236 11 81 21 0 0 1 81 1 240 672 28 27 0 0 55 24 238 17 236 0 2
37 115 239 69 241 27 0 245 +15 237 575 0 239 242 0 17 115 0 237 243 236 108 245
 158 0 244 +17 239 0 237 236 243 93 107 246 0 0 -17 241 0 250 214 210 93 236 27
 0 239 -17 245 0 248 25 247 69 115 158 0 0 -15 248 567 0 245 249 0 17 25 0 248 9
7 245 12 31 11 0 254 +17 247 0 248 245 97 108 255 252 0 0 +17 97 0 248 247 25 96
 254 253 0 251 +17 255 0 258 260 244 96 247 252 0 0 -16 252 464 256 ?247 259 0 2
57 0 0 1 81 1 256 466 28 252 0 0 261 265 263 16 259 481 265 ?243 262 252 264 0 0
 1 30 257 627 0 252 266 264 0 +-.00585598740508289 .0649976876768774 -.0127 -.68
968404037508 -.724110436640645 0 30 266 628 0 146 270 257 0 +-.00444991417638133
5 .0543582079544848 .0254 -.5 .866025403784439 0 30 264 626 0 259 257 268 0 +-.0
1006774152009216 .0519803720048578 -.0127 .504048422660692 -.86367539481756 0 30
 268 625 0 262 264 267 0 +-.003478658348006095 .0466507305116713 -.0127 -1 0 0 1
6 262 525 269 ?271 155 259 268 0 0 1 30 267 624 0 155 268 167 0 +-.0044499141763
81335 .0543582079544848 -.0127 -.5 .866025403784439 0 16 155 513 275 ?251 142 26
2 267 0 0 1 30 167 623 0 272 267 164 0 +-.00880501213202731 .061901458885603 .02
54 0 0 -1 16 272 495 273 ?90 246 253 167 253 253 1 81 1 273 682 28 272 0 0 274 1
59 277 17 90 0 147 86 141 64 149 272 0 48 +16 246 492 161 ?107 140 272 164 140 1
40 1 16 253 461 274 ?97 272 146 167 272 272 1 81 1 274 681 28 253 0 0 280 273 27
9 16 146 522 276 ?113 253 145 266 0 0 1 81 1 276 524 28 146 0 0 144 269 278 16 1
45 507 281 ?138 146 129 270 0 0 1 81 1 281 509 28 145 0 0 265 275 282 17 138 0 2
84 52 118 120 139 145 0 0 +30 270 629 0 145 143 266 0 +-.003478658348006095 .046
6507305116713 .0254 -1 0 0 30 143 630 0 129 153 270 0 +-.01006774152009216 .0519
803720048578 .0254 .504048422660692 -.86367539481756 0 30 153 631 0 142 0 143 0
 +-.00585598740508289 .0649976876768774 .0254 -.68968404037508 -.724110436640645
 0 15 284 221 0 235 283 0 17 52 0 284 235 138 41 127 140 0 135 +17 118 0 284 138
 285 116 102 226 0 150 -17 139 0 137 113 124 116 138 145 0 0 -17 285 0 284 118 1
07 101 271 262 0 0 -17 102 0 287 251 150 101 118 226 0 260 +17 150 0 287 102 149
 116 113 146 0 139 -15 287 219 0 47 290 0 17 149 0 287 150 47 92 90 272 0 141 -1
7 47 0 287 149 51 64 37 49 0 0 -17 51 0 287 47 40 26 223 225 0 194 -17 40 0 287
 51 254 70 29 36 0 223 +17 223 0 289 286 194 70 51 225 0 38 +17 194 0 289 223 28
8 26 50 195 0 0 +15 289 217 0 286 295 0 17 288 0 289 194 286 87 73 199 0 78 -17
 50 0 46 48 37 87 194 195 0 0 -15 46 396 0 50 17 0 17 48 0 46 37 50 64 86 154 0
 47 +14 255 17 402 291 ?293 0 46 6 292 +293 293 293 0 23 81 1 291 698 294 17 296
 0 0 300 297 14 293 1 300 ?298 17 299 6 292 +17 17 298 17 23 50 255 292 3 0 17 3
01 305 0 +0 .01843258203997045 .0127 0 0 1 1 0 0 13 23 91 0 0 0 0 0 0 10 17 50 3
01 610 0 152 303 292 0 +-.00585598740508289 .0649976876768774 .0254 .72411043664
0645 -.68968404037508 0 .68968404037508 .724110436640645 0 50 305 196 0 298 292
 302 0 +0 .01843258203997045 0 0 0 1 1 0 0 14 298 387 304 ?309 293 33 6 305 -309
 309 309 293 23 50 302 237 0 295 305 310 0 +-.0110389973484674 .0596878494476713
 .0127 -.74343145893425 .668812130472297 0 -.668812130472297 -.74343145893425 0
 14 295 218 307 ?308 19 289 6 302 +0 0 308 19 23 50 310 238 0 290 302 306 0 +-.0
04449914176381335 .0543582079544848 .0127 -.866025403784439 -.5 0 .5 -.866025403
784439 0 14 290 220 313 ?315 283 287 6 310 -0 0 315 283 23 50 306 239 0 283 310
 311 0 +-.003478658348006095 .0466507305116713 .0127 0 -1 0 0 0 -1 14 283 222 31
4 ?290 312 284 6 306 +0 0 290 312 23 50 311 240 0 312 306 316 0 +-.0069573166960
1219 .03543591870167345 .0127 1 1160110957744954e-31 0 -1160110957744954e-31 1 0
 14 312 224 320 ?283 318 317 6 311 +0 0 283 318 23 51 316 241 0 318 311 319 0 -4
007211229506425e-31 -765013052905772e-30 .0127 0 0 -1 .02520052131735735 -1 0 0
 14 318 226 321 ?312 325 323 6 316 -0 0 312 325 23 50 319 242 0 325 316 20 0 +-.
01317816634417212 .03939514416052565 .0127 -1 0 0 0 0 1 14 325 228 322 ?318 309
 77 6 319 +0 0 318 309 23 51 20 243 0 315 319 7 0 -0 1944126793646425e-34 .0127
 0 0 -1 .003175 -1 0 0 14 315 230 324 ?19 290 326 6 20 +0 0 19 290 23 81 1 324 7
07 294 315 330 0 313 327 328 14 19 234 327 ?295 315 329 6 7 +0 0 295 315 23 15 3
26 229 0 176 315 332 17 176 0 326 176 176 0 335 175 0 0 +15 332 231 0 334 315 0
 17 334 0 332 334 334 0 201 196 0 0 -17 201 0 331 201 201 0 334 196 0 0 +15 331
 138 0 201 309 333 14 309 126 336 ?325 298 331 6 305 -298 298 325 298 23 15 333
 137 0 198 309 250 17 198 0 333 198 198 0 337 168 0 0 +15 250 379 0 241 309 0 17
 337 0 339 337 337 0 198 168 0 0 -15 339 235 0 337 19 0 81 1 336 701 294 309 338
 0 304 322 340 80 7 CCCCCDI12 legal_owners0 17 1 lCZ1 294 0 342 8001 0 0 0 0 3 5
 0 0 0 FFFFTFTFFFFFFFFFF2 81 1 338 687 28 309 0 336 345 344 341 81 1 304 700 294
 298 344 0 300 336 343 81 1 322 702 294 325 350 0 336 321 346 83 255 3 340 .6156
86274509804 .811764705882353 .929411764705882 81 1 350 315 28 325 0 322 348 347
 349 81 1 321 703 294 318 351 0 322 320 355 83 3 346 .615686274509804 .811764705
882353 .929411764705882 81 1 351 313 28 318 0 321 330 348 352 81 1 320 704 294 3
12 347 0 321 314 353 83 3 355 .615686274509804 .811764705882353 .929411764705882
 81 1 347 316 28 312 0 320 350 261 354 81 1 314 705 294 283 356 0 320 313 360 83
 3 353 .615686274509804 .811764705882353 .929411764705882 81 1 356 679 28 283 0
 314 191 280 358 81 1 313 706 294 290 280 0 314 324 357 83 3 360 .61568627450980
4 .811764705882353 .929411764705882 81 1 280 680 28 290 0 313 356 274 359 83 3 3
57 .615686274509804 .811764705882353 .929411764705882 80 1 28 364 365 9000 0 0 0
 0 3 6 0 0 0 FFTFTFTTFFFFFFFFF1 82 255 3 359 10 1 2 79 255 9 365 BTI/DetId81 1 1
91 678 28 49 0 0 220 356 362 82 3 358 10 0 2 81 1 220 677 28 36 0 0 229 191 363
 82 3 362 10 6 1 81 1 229 676 28 226 0 0 166 220 361 82 3 363 10 5 1 81 1 166 67
5 28 154 0 0 162 229 368 82 3 361 10 4 1 81 1 162 674 28 160 0 0 24 166 370 82 3
 368 10 3 1 81 1 24 673 28 11 0 0 240 162 366 82 3 370 10 2 1 82 3 366 10 1 1 81
 1 261 317 28 295 0 307 347 256 369 82 3 354 6 6 2 81 1 307 709 294 295 261 0 32
7 367 371 82 3 369 6 7 2 81 1 327 708 294 19 348 0 324 307 375 81 1 367 710 294
 308 373 0 307 372 374 83 3 371 .615686274509804 .811764705882353 .9294117647058
82 14 308 604 367 ?242 295 258 6 376 -0 0 242 295 23 81 1 373 606 28 308 0 367 3
80 34 378 81 1 372 711 294 242 377 0 367 379 381 83 3 374 .615686274509804 .8117
64705882353 .929411764705882 14 242 572 372 ?249 308 237 6 303 -132 132 249 308
 23 81 1 377 691 28 242 0 372 296 385 382 81 1 379 712 294 249 383 0 372 384 387
 83 3 381 .615686274509804 .811764705882353 .929411764705882 14 249 564 379 ?152
 242 248 6 301 -152 152 152 242 23 81 1 383 693 28 249 0 379 385 390 389 81 1 38
4 713 294 152 390 0 379 386 388 83 3 387 .615686274509804 .811764705882353 .9294
11764705882 14 152 584 384 ?132 249 147 6 301 -249 249 132 249 23 81 1 390 694 2
8 152 0 384 383 0 391 81 1 386 714 294 132 385 0 384 392 394 83 3 388 .615686274
509804 .811764705882353 .929411764705882 14 132 588 386 ?148 152 126 6 303 -242
 242 148 152 23 81 1 385 692 28 132 0 386 377 383 393 81 1 392 715 294 148 380 0
 386 0 395 83 3 394 .615686274509804 .811764705882353 .929411764705882 14 148 60
0 392 ?0 132 137 6 397 +0 0 0 132 23 81 1 380 602 28 148 0 392 111 373 400 83 3
 395 .615686274509804 .811764705882353 .929411764705882 81 1 111 551 28 92 0 0 1
25 380 399 82 3 400 9 2 2 81 1 125 549 28 120 0 0 103 111 396 82 3 399 9 1 0 81
 1 103 547 28 101 0 0 119 125 398 82 3 396 9 5 0 81 1 119 544 28 116 0 0 121 103
 405 82 3 398 9 6 0 82 3 405 9 7 0 50 397 615 0 148 0 376 0 +4024558464266195e-3
1 .0237424202691762 .0254 0 0 1 1 0 0 50 376 614 0 308 397 303 0 +40245584642661
95e-31 .0237424202691762 -.0127 0 0 1 1 0 0 50 303 611 0 132 376 301 0 +-.010067
74152009216 .0519803720048578 .0254 .86367539481756 .504048422660692 0 -.5040484
22660692 .86367539481756 0 82 3 393 10 7 2 82 3 391 10 9 2 82 3 389 10 8 2 81 1
 296 690 28 17 0 291 401 377 403 82 3 382 10 6 2 81 1 401 689 28 293 0 300 344 2
96 402 82 3 403 10 5 2 81 1 300 699 294 293 401 0 291 304 404 81 1 344 688 28 29
8 0 304 338 401 406 82 3 402 10 4 2 82 3 406 10 3 2 83 3 404 .615686274509804 .8
11764705882353 .929411764705882 81 1 34 665 28 1 0 410 373 30 407 82 3 378 9 1 2
 81 1 410 695 408 1 34 14 0 0 409 82 3 407 6 0 3 80 1 408 411 415 8038 0 0 0 0 0
 0 0 0 0 TTTTTTTTTTTTTFTFT10 81 1 14 696 411 1 410 2 0 0 413 98 255 6 409 80 97
 114 116 32 49 80 1 411 412 414 8017 0 0 0 0 0 0 0 0 0 TTTTTTTTTTTTTFTFT3 84 255
 6 413 Part 179 13 414 SDL/TYSA_NAME79 14 415 SDL/TYSA_UNAME15 258 607 0 255 308
 0 81 1 348 314 28 19 0 327 351 350 419 83 3 375 .615686274509804 .8117647058823
53 .929411764705882 82 3 419 6 4 2 81 1 330 310 28 315 0 324 192 351 420 82 3 35
2 6 3 2 81 1 192 305 28 195 0 0 218 330 417 82 3 420 6 0 2 81 1 218 304 28 177 0
 0 187 192 418 82 3 417 6 17 1 81 1 187 303 28 186 0 0 212 218 416 82 3 418 6 16
 1 81 1 212 302 28 215 0 0 181 187 423 82 3 416 6 15 1 81 1 181 301 28 178 0 0 2
06 212 425 82 3 423 6 14 1 81 1 206 300 28 204 0 0 174 181 421 82 3 425 6 13 1 8
1 1 174 299 28 171 0 0 197 206 424 82 3 421 6 12 1 81 1 197 298 28 168 0 0 184 1
74 422 82 3 424 6 11 1 81 1 184 297 28 183 0 0 209 197 426 82 3 422 6 10 1 81 1
 209 296 28 208 0 0 179 184 430 82 3 426 6 9 1 81 1 179 295 28 175 0 0 205 209 4
28 82 3 430 6 8 1 81 1 205 294 28 196 0 0 221 179 427 82 3 428 6 7 1 81 1 221 29
2 28 225 0 0 232 205 429 82 3 427 6 6 1 81 1 232 291 28 228 0 0 222 221 431 82 3
 429 6 4 1 81 1 222 290 28 199 0 0 233 232 435 82 3 431 6 3 1 81 1 233 289 28 23
4 0 0 42 222 433 82 3 435 6 2 1 81 1 42 288 28 81 0 0 39 233 432 82 3 433 6 1 1
 82 3 432 6 0 1 82 3 349 6 5 2 83 3 343 .615686274509804 .811764705882353 .92941
1764705882 81 1 345 686 28 140 0 0 161 338 434 82 3 341 10 2 2 16 140 501 345 ?5
2 158 246 164 246 246 1 81 1 161 685 28 246 0 0 156 345 436 82 3 434 10 12 1 82
 3 436 10 11 1 79 15 342 SDL/TYSA_COLOUR17 335 0 440 335 335 0 176 175 0 0 -15 4
40 7 0 335 293 437 15 437 8 0 438 293 0 17 438 0 437 136 82 41 188 186 0 0 -17 1
36 0 437 439 438 87 135 160 0 288 +17 82 0 437 438 439 53 85 183 0 442 +17 188 0
 317 67 445 53 438 186 0 0 +15 317 223 0 94 312 0 17 67 0 317 94 188 62 442 234
 0 211 +17 445 0 317 188 94 41 235 228 0 438 -17 94 0 317 445 67 93 214 215 0 23
5 -17 235 0 284 107 52 93 445 228 0 241 +17 107 0 284 285 235 104 239 246 0 243
 +17 243 0 237 239 115 104 244 259 0 271 +17 244 0 258 255 271 108 243 259 0 247
 -17 271 0 258 244 260 104 285 262 0 0 +17 260 0 258 271 255 101 251 155 0 285 -
17 251 0 287 254 102 96 260 155 0 255 +17 254 0 287 40 251 12 97 253 0 0 -17 214
 0 250 444 241 62 94 215 0 0 +17 444 0 250 210 214 59 211 208 0 79 -17 210 0 250
 241 444 69 79 204 0 286 +17 211 0 323 442 61 62 444 208 0 214 +17 79 0 77 74 73
 59 210 204 0 0 -15 77 227 0 79 325 0 17 73 0 77 79 78 69 288 199 0 210 +17 78 0
 77 73 74 87 439 178 0 50 +17 439 0 437 82 136 68 78 178 0 0 -15 323 225 0 211 3
18 0 17 442 0 323 85 211 53 67 234 0 188 -17 61 0 323 211 85 59 74 81 0 444 +17
 85 0 323 61 442 68 82 183 0 439 -17 286 0 289 288 223 69 38 177 0 236 -17 38 0
 33 29 31 70 286 177 0 0 +15 33 385 0 31 298 0 17 135 0 126 127 128 41 136 160 0
 445 -15 329 233 0 173 19 339 17 173 0 329 173 173 0 441 171 0 0 +17 441 0 299 4
41 441 0 173 171 0 0 -15 299 6 0 441 293 440 83 3 328 .615686274509804 .81176470
5882353 .929411764705882 83 3 297 .615686274509804 .811764705882353 .92941176470
5882 81 1 265 483 28 259 0 0 256 281 443 81 1 275 515 28 155 0 0 281 151 446 82
 3 282 9 7 1 81 1 151 518 28 142 0 0 275 144 447 82 3 446 9 10 1 81 1 144 521 28
 129 0 0 151 276 449 82 3 447 9 9 1 82 3 449 9 5 1 82 3 443 9 4 1 81 1 269 527 2
8 262 0 0 276 98 448 82 3 278 9 11 1 81 1 98 533 28 96 0 0 269 112 450 82 3 448
 9 6 1 81 1 112 536 28 108 0 0 98 110 452 82 3 450 9 0 0 81 1 110 538 28 104 0 0
 112 121 455 82 3 452 9 2 0 82 3 455 9 4 0 82 3 279 10 7 1 81 1 159 683 28 158 0
 0 273 156 454 82 3 277 10 8 1 82 3 454 10 9 1 82 3 263 9 8 1 81 1 55 671 28 41
 0 0 91 240 451 82 3 238 10 0 1 81 1 91 670 28 93 0 0 75 55 453 82 3 451 10 5 0
 81 1 75 669 28 87 0 0 66 91 460 82 3 453 10 4 0 82 3 460 10 3 0 82 3 165 10 10
 1 82 3 130 9 3 0 81 1 35 667 28 64 0 0 30 66 456 82 3 456 10 1 0 81 1 83 279 28
 53 0 0 65 43 458 81 1 65 278 28 62 0 0 72 83 457 81 1 43 284 28 70 0 0 83 39 45
9 82 3 458 6 3 0 82 3 459 6 8 0 82 3 457 6 2 0 81 1 58 276 28 59 0 0 0 72 461 82
 3 80 6 1 0 82 3 461 6 0 0 82 3 71 10 2 0 82 3 44 6 9 0 82 3 32 10 0 0 19 18 252
 0 1 0 10 6 0 S0 74 4 CI16 index_map_offset0 0 1 dCCZ20 16 5 0 0 390 410 14 2 39
2 0 0 0 0 0 0 0 0 0 0 0 0 0 0 0 80 1 13 294 465 8040 0 0 0 0 3 5 0 0 0 TTTFFFFFF
FFFFFFFF2 83 3 15 .615686274509804 .811764705882353 .929411764705882 79 17 465 S
DL/TYSA_COLOUR_21 0 
